<mxfile host="app.diagrams.net" modified="2022-10-09T18:53:10.843Z" agent="5.0 (Windows NT 10.0; Win64; x64) AppleWebKit/537.36 (KHTML, like Gecko) Chrome/106.0.0.0 Safari/537.36 Edg/106.0.1370.37" etag="ZbFj9pSWry3rMfZoGqp8" version="20.4.0" type="github" pages="4">
  <diagram id="ZpoW-5_zmQfj2YUIRrpp" name="Page-1">
    <mxGraphModel dx="992" dy="579" grid="1" gridSize="10" guides="1" tooltips="1" connect="1" arrows="1" fold="1" page="1" pageScale="1" pageWidth="850" pageHeight="1100" math="0" shadow="0">
      <root>
        <mxCell id="0" />
        <mxCell id="1" parent="0" />
        <mxCell id="bD6WIRs1FbXDWNFnN4uZ-1" value="Public Clouds" style="swimlane;" parent="1" vertex="1">
          <mxGeometry x="580" y="200" width="220" height="110" as="geometry" />
        </mxCell>
        <mxCell id="bD6WIRs1FbXDWNFnN4uZ-3" value="Azure" style="ellipse;shape=cloud;whiteSpace=wrap;html=1;" parent="bD6WIRs1FbXDWNFnN4uZ-1" vertex="1">
          <mxGeometry x="70" y="40" width="70" height="60" as="geometry" />
        </mxCell>
        <mxCell id="bD6WIRs1FbXDWNFnN4uZ-4" value="GCP" style="ellipse;shape=cloud;whiteSpace=wrap;html=1;" parent="bD6WIRs1FbXDWNFnN4uZ-1" vertex="1">
          <mxGeometry x="140" y="40" width="70" height="60" as="geometry" />
        </mxCell>
        <mxCell id="bD6WIRs1FbXDWNFnN4uZ-2" value="Aws" style="ellipse;shape=cloud;whiteSpace=wrap;html=1;" parent="1" vertex="1">
          <mxGeometry x="580" y="240" width="70" height="60" as="geometry" />
        </mxCell>
        <mxCell id="bD6WIRs1FbXDWNFnN4uZ-5" value="Private Clouds" style="swimlane;" parent="1" vertex="1">
          <mxGeometry x="580" y="320" width="220" height="110" as="geometry" />
        </mxCell>
        <mxCell id="bD6WIRs1FbXDWNFnN4uZ-6" value="Openstack&amp;nbsp;" style="ellipse;shape=cloud;whiteSpace=wrap;html=1;" parent="bD6WIRs1FbXDWNFnN4uZ-5" vertex="1">
          <mxGeometry x="70" y="40" width="90" height="60" as="geometry" />
        </mxCell>
        <mxCell id="bD6WIRs1FbXDWNFnN4uZ-8" value="" style="shape=process;whiteSpace=wrap;html=1;backgroundOutline=1;" parent="1" vertex="1">
          <mxGeometry x="580" y="490" width="220" height="60" as="geometry" />
        </mxCell>
        <mxCell id="bD6WIRs1FbXDWNFnN4uZ-9" value="" style="shape=process;whiteSpace=wrap;html=1;backgroundOutline=1;" parent="1" vertex="1">
          <mxGeometry x="590" y="500" width="220" height="60" as="geometry" />
        </mxCell>
        <mxCell id="bD6WIRs1FbXDWNFnN4uZ-10" value="VMs" style="shape=process;whiteSpace=wrap;html=1;backgroundOutline=1;" parent="1" vertex="1">
          <mxGeometry x="600" y="510" width="220" height="60" as="geometry" />
        </mxCell>
        <mxCell id="bD6WIRs1FbXDWNFnN4uZ-11" value="Physical Machines&amp;nbsp;&lt;br&gt;Linux/Win" style="shape=cube;whiteSpace=wrap;html=1;boundedLbl=1;backgroundOutline=1;darkOpacity=0.05;darkOpacity2=0.1;" parent="1" vertex="1">
          <mxGeometry x="630" y="600" width="120" height="80" as="geometry" />
        </mxCell>
      </root>
    </mxGraphModel>
  </diagram>
  <diagram id="RWFFuxE7Bb6pmyEQBlC1" name="Project Architecture">
    <mxGraphModel dx="1417" dy="827" grid="1" gridSize="10" guides="1" tooltips="1" connect="1" arrows="1" fold="1" page="1" pageScale="1" pageWidth="850" pageHeight="1100" math="0" shadow="0">
      <root>
        <mxCell id="0" />
        <mxCell id="1" parent="0" />
        <mxCell id="0coVuQPiDRayt6KcQQRR-2" value="Project Master" style="swimlane;" vertex="1" parent="1">
          <mxGeometry x="50" y="370" width="200" height="200" as="geometry" />
        </mxCell>
        <mxCell id="0coVuQPiDRayt6KcQQRR-3" value="Project 1 Ubuntu" style="swimlane;" vertex="1" parent="1">
          <mxGeometry x="490" y="20" width="200" height="200" as="geometry" />
        </mxCell>
        <mxCell id="0coVuQPiDRayt6KcQQRR-9" value="EC2 Instance" style="swimlane;" vertex="1" parent="0coVuQPiDRayt6KcQQRR-3">
          <mxGeometry x="10" y="30" width="180" height="160" as="geometry" />
        </mxCell>
        <mxCell id="0coVuQPiDRayt6KcQQRR-4" value="Project  1 CentOS" style="swimlane;" vertex="1" parent="1">
          <mxGeometry x="490" y="250" width="200" height="200" as="geometry" />
        </mxCell>
        <mxCell id="0coVuQPiDRayt6KcQQRR-5" value="Project 2 Ubuntu" style="swimlane;" vertex="1" parent="1">
          <mxGeometry x="490" y="480" width="200" height="200" as="geometry" />
        </mxCell>
        <mxCell id="0coVuQPiDRayt6KcQQRR-6" value="Project 2 CentOS" style="swimlane;" vertex="1" parent="1">
          <mxGeometry x="490" y="700" width="200" height="200" as="geometry" />
        </mxCell>
      </root>
    </mxGraphModel>
  </diagram>
  <diagram id="1-Fb_bKsTbmxII08iVXc" name="Project 1: Automate Tomcat Deployment">
    <mxGraphModel dx="992" dy="579" grid="1" gridSize="10" guides="1" tooltips="1" connect="1" arrows="1" fold="1" page="1" pageScale="1" pageWidth="850" pageHeight="1100" math="0" shadow="0">
      <root>
        <mxCell id="0" />
        <mxCell id="1" parent="0" />
        <mxCell id="WmCAUkpO2brEuJxzYbWH-1" value="Node 1" style="swimlane;" vertex="1" parent="1">
          <mxGeometry x="50" y="50" width="200" height="200" as="geometry" />
        </mxCell>
        <mxCell id="WmCAUkpO2brEuJxzYbWH-3" value="Jenkins &amp;amp;&amp;amp; Ansible&lt;br&gt;Install (apt)" style="rounded=0;whiteSpace=wrap;html=1;" vertex="1" parent="WmCAUkpO2brEuJxzYbWH-1">
          <mxGeometry x="10" y="40" width="120" height="60" as="geometry" />
        </mxCell>
        <mxCell id="WmCAUkpO2brEuJxzYbWH-4" value="Sample Java + Maven project for War file deployment (Github/Spring Boot)" style="rounded=0;whiteSpace=wrap;html=1;" vertex="1" parent="WmCAUkpO2brEuJxzYbWH-1">
          <mxGeometry x="10" y="120" width="120" height="60" as="geometry" />
        </mxCell>
        <mxCell id="WmCAUkpO2brEuJxzYbWH-5" value="&lt;h1&gt;Sample War&lt;/h1&gt;&lt;p&gt;must map file path for jenkins and ansible playbook&lt;/p&gt;&lt;p&gt;&lt;br&gt;&lt;/p&gt;" style="text;html=1;strokeColor=none;fillColor=none;spacing=5;spacingTop=-20;whiteSpace=wrap;overflow=hidden;rounded=0;" vertex="1" parent="1">
          <mxGeometry x="50" y="260" width="190" height="120" as="geometry" />
        </mxCell>
        <mxCell id="WmCAUkpO2brEuJxzYbWH-6" value="Jenkins Controller:&lt;br&gt;Maven Project/Pipeline" style="rounded=0;whiteSpace=wrap;html=1;" vertex="1" parent="1">
          <mxGeometry x="290" y="70" width="120" height="60" as="geometry" />
        </mxCell>
        <mxCell id="WmCAUkpO2brEuJxzYbWH-14" value="Materials" style="swimlane;fontStyle=0;childLayout=stackLayout;horizontal=1;startSize=30;horizontalStack=0;resizeParent=1;resizeParentMax=0;resizeLast=0;collapsible=1;marginBottom=0;" vertex="1" parent="1">
          <mxGeometry x="520" y="40" width="270" height="120" as="geometry" />
        </mxCell>
        <mxCell id="WmCAUkpO2brEuJxzYbWH-15" value="Ansible Playbook x 2" style="text;strokeColor=none;fillColor=none;align=left;verticalAlign=middle;spacingLeft=4;spacingRight=4;overflow=hidden;points=[[0,0.5],[1,0.5]];portConstraint=eastwest;rotatable=0;" vertex="1" parent="WmCAUkpO2brEuJxzYbWH-14">
          <mxGeometry y="30" width="270" height="30" as="geometry" />
        </mxCell>
        <mxCell id="WmCAUkpO2brEuJxzYbWH-16" value="War Project" style="text;strokeColor=none;fillColor=none;align=left;verticalAlign=middle;spacingLeft=4;spacingRight=4;overflow=hidden;points=[[0,0.5],[1,0.5]];portConstraint=eastwest;rotatable=0;" vertex="1" parent="WmCAUkpO2brEuJxzYbWH-14">
          <mxGeometry y="60" width="270" height="30" as="geometry" />
        </mxCell>
        <mxCell id="WmCAUkpO2brEuJxzYbWH-17" value="Study: Trigger Jenkins job using jenkins url" style="text;strokeColor=none;fillColor=none;align=left;verticalAlign=middle;spacingLeft=4;spacingRight=4;overflow=hidden;points=[[0,0.5],[1,0.5]];portConstraint=eastwest;rotatable=0;" vertex="1" parent="WmCAUkpO2brEuJxzYbWH-14">
          <mxGeometry y="90" width="270" height="30" as="geometry" />
        </mxCell>
        <mxCell id="WmCAUkpO2brEuJxzYbWH-18" value="Playbook 1&lt;br&gt;Trigger Jenkins using ansible_uri and jenkins url" style="whiteSpace=wrap;html=1;shape=mxgraph.basic.document" vertex="1" parent="1">
          <mxGeometry x="360" y="210" width="300" height="130" as="geometry" />
        </mxCell>
        <mxCell id="WmCAUkpO2brEuJxzYbWH-19" value="Playbook 2&lt;br&gt;Install and configure Tomcat server on worker 1 and 2&amp;nbsp;&lt;br&gt;Copy war file from jenkins output directory to Tomcat application directory /var/lib/tomcat7/webapps&amp;nbsp;&lt;br&gt;restart tomcat server" style="whiteSpace=wrap;html=1;shape=mxgraph.basic.document" vertex="1" parent="1">
          <mxGeometry x="360" y="340" width="300" height="170" as="geometry" />
        </mxCell>
      </root>
    </mxGraphModel>
  </diagram>
  <diagram id="4CWZvvhzS3BAdqv6HRnf" name="Project 2: WordPress Deployment">
    <mxGraphModel dx="992" dy="579" grid="1" gridSize="10" guides="1" tooltips="1" connect="1" arrows="1" fold="1" page="1" pageScale="1" pageWidth="850" pageHeight="1100" math="0" shadow="0">
      <root>
        <mxCell id="0" />
        <mxCell id="1" parent="0" />
        <mxCell id="Ol3imwJ-YHpn6W0TKbHj-1" value="Master " style="swimlane;" vertex="1" parent="1">
          <mxGeometry x="50" y="150" width="200" height="200" as="geometry" />
        </mxCell>
        <mxCell id="Ol3imwJ-YHpn6W0TKbHj-2" value="Terraform" style="rounded=0;whiteSpace=wrap;html=1;" vertex="1" parent="Ol3imwJ-YHpn6W0TKbHj-1">
          <mxGeometry x="10" y="40" width="120" height="60" as="geometry" />
        </mxCell>
      </root>
    </mxGraphModel>
  </diagram>
</mxfile>
